<svg width="16" height="17" viewBox="0 0 16 17" fill="none" xmlns="http://www.w3.org/2000/svg">
<g id="icons8-ms-&#225;&#132;&#139;&#225;&#133;&#166;&#225;&#134;&#168;&#225;&#132;&#137;&#225;&#133;&#166;&#225;&#134;&#175; 1" clip-path="url(#clip0_1177_10652)">
<path id="Vector" d="M9.22 0.510039L0.26 2.21004C0.10875 2.23879 0 2.37629 0 2.53004V14.47C0 14.6238 0.10875 14.7613 0.26 14.79L9.22 16.49C9.24 16.4938 9.26 16.5 9.28 16.5C9.35375 16.5 9.4225 16.4775 9.48 16.43C9.55375 16.3688 9.6 16.275 9.6 16.18V0.820039C9.6 0.725039 9.55375 0.631289 9.48 0.570039C9.40625 0.508789 9.31375 0.492539 9.22 0.510039ZM10.24 2.42004V4.66004H10.88V5.30004H10.24V6.90004H10.88V7.54004H10.24V9.14004H10.88V9.78004H10.24V11.7H10.88V12.34H10.24V14.58H15.04C15.3925 14.58 15.68 14.2925 15.68 13.94V3.06004C15.68 2.70754 15.3925 2.42004 15.04 2.42004H10.24ZM11.52 4.66004H14.08V5.30004H11.52V4.66004ZM2.14 5.52004H3.78L4.64 7.31004C4.7075 7.45129 4.7675 7.62504 4.82 7.82004H4.83C4.86375 7.70379 4.92875 7.52129 5.02 7.29004L5.97 5.52004H7.47L5.68 8.48004L7.52 11.5H5.93L4.89 9.55004C4.85125 9.47754 4.81125 9.34379 4.77 9.15004H4.76C4.74 9.24129 4.6925 9.38379 4.62 9.57004L3.58 11.5H1.98L3.89 8.51004L2.14 5.52004ZM11.52 6.90004H14.08V7.54004H11.52V6.90004ZM11.52 9.14004H14.08V9.78004H11.52V9.14004ZM11.52 11.7H14.08V12.34H11.52V11.7Z" fill="#3A6C46"/>
</g>
<defs>
<clipPath id="clip0_1177_10652">
<rect width="16" height="16" fill="white" transform="translate(0 0.5)"/>
</clipPath>
</defs>
</svg>
