<svg width="20" height="20" viewBox="0 0 20 20" fill="none" xmlns="http://www.w3.org/2000/svg">
<g id="&#8;icon20">
<path id="Vector" fill-rule="evenodd" clip-rule="evenodd" d="M12.6412 11.4843H12.0319L11.8159 11.276C12.5979 10.369 13.0277 9.21103 13.0269 8.01344C13.0269 7.02187 12.7328 6.05258 12.182 5.22812C11.6311 4.40367 10.8481 3.76108 9.932 3.38163C9.01591 3.00217 8.00788 2.90289 7.03537 3.09633C6.06285 3.28978 5.16955 3.76726 4.4684 4.4684C3.76726 5.16955 3.28978 6.06285 3.09633 7.03537C2.90289 8.00788 3.00217 9.01591 3.38163 9.932C3.76108 10.8481 4.40367 11.6311 5.22812 12.182C6.05258 12.7328 7.02187 13.0269 8.01344 13.0269C9.25523 13.0269 10.3967 12.5718 11.276 11.8159L11.4843 12.0319V12.6412L15.3408 16.49L16.49 15.3408L12.6412 11.4843ZM8.01344 11.4843C6.09291 11.4843 4.5426 9.93397 4.5426 8.01344C4.5426 6.09291 6.09291 4.5426 8.01344 4.5426C9.93397 4.5426 11.4843 6.09291 11.4843 8.01344C11.4843 9.93397 9.93397 11.4843 8.01344 11.4843Z" fill="#1C1C1C"/>
</g>
</svg>
