<svg width="16" height="14" viewBox="0 0 16 14" fill="none" xmlns="http://www.w3.org/2000/svg">
<g id="Group 1860">
<path id="Vector" d="M2.45013 3.48708H14.0872V3.12578C14.0872 2.915 14.0214 2.71944 13.9019 2.57529C13.7975 2.44944 13.6642 2.38014 13.5266 2.38014H8.00951C7.56495 2.38014 7.16806 2.09698 6.97372 1.64088L6.62285 0.817922C6.52095 0.578973 6.33113 0.428448 6.12755 0.424952L0.921109 0.338379C0.918644 0.338379 0.916179 0.338379 0.913919 0.338379C0.772377 0.338379 0.635355 0.409529 0.527914 0.538874C0.405272 0.686521 0.337891 0.887016 0.337891 1.10293V9.85049L1.39257 4.55762C1.5183 3.92693 1.95278 3.48708 2.45013 3.48708Z" fill="#183322"/>
<path id="Vector_2" d="M0.0359697 11.3665L0.168884 10.699V1.10303C0.168884 0.588119 0.50312 0.169238 0.913982 0.169238H0.924048L6.13049 0.256017C6.40166 0.260541 6.65003 0.450549 6.77842 0.751805L7.1293 1.57476C7.29672 1.96732 7.63404 2.2112 8.00957 2.2112H13.5266C13.9289 2.2112 14.2563 2.62165 14.2563 3.12608V3.48738H14.4254V3.12608C14.4254 2.52727 14.0229 2.04197 13.5266 2.04197H8.00957C7.70409 2.04197 7.4243 1.83592 7.28481 1.50834L6.93393 0.685385C6.77924 0.322643 6.47151 0.0925362 6.13337 0.0869841L0.927129 0C0.922815 0 0.918501 0 0.914187 0C0.41006 0 1.93152e-05 0.493115 1.93152e-05 1.10303V11.8267C1.93152e-05 12.4319 0.334255 12.9427 0.791956 13.1062C0.239346 12.8998 -0.118104 12.141 0.0359697 11.3667V11.3665Z" fill="white"/>
<path id="Vector_3" d="M0.338015 4.76598V1.10298C0.338015 0.887065 0.405602 0.68657 0.528039 0.538923C0.635274 0.409578 0.772502 0.338428 0.914044 0.338428C0.916509 0.338428 0.918769 0.338428 0.921234 0.338428L6.12768 0.425001C6.33126 0.428291 6.52108 0.579022 6.62297 0.817971L6.97385 1.64093C7.16819 2.09682 7.56508 2.38019 8.00963 2.38019H13.5267C13.6643 2.38019 13.7977 2.44949 13.902 2.57534C14.0216 2.71949 14.0873 2.91505 14.0873 3.12582V3.48713H14.2564V3.12582C14.2564 2.6214 13.9291 2.21095 13.5267 2.21095H8.00963C7.6339 2.21095 7.29658 1.96707 7.12936 1.57451L6.77848 0.751551C6.65009 0.450294 6.40172 0.260286 6.13055 0.255762L0.92411 0.169189H0.914044C0.503182 0.169189 0.168945 0.58807 0.168945 1.10298V10.699L0.338015 9.85053V4.76598Z" fill="white"/>
<path id="Vector_4" d="M15.6327 5.21562C15.7151 4.80188 15.6218 4.3684 15.3888 4.08441C15.2923 3.96638 15.13 3.82593 14.9067 3.82593H14.4258V11.2722L15.6325 5.21582L15.6327 5.21562Z" fill="#183322"/>
<path id="Vector_5" d="M13.9025 12.6275C14.0221 12.4834 14.0878 12.2878 14.0878 12.077V3.82568H2.45078C2.25911 3.82568 2.11243 3.93344 2.02307 4.02392C1.87865 4.17012 1.77286 4.38316 1.72479 4.62396L0.368325 11.4328C0.285947 11.8465 0.379213 12.28 0.612172 12.564C0.678115 12.6444 0.774462 12.7353 0.899981 12.785C0.966746 12.8097 1.03639 12.8225 1.10685 12.8225H13.5274C13.6651 12.8225 13.7984 12.7532 13.9027 12.6273L13.9025 12.6275Z" fill="#183322"/>
<path id="Vector_6" d="M14.2559 12.1097C14.2633 12.0818 14.2698 12.0532 14.2756 12.0242L14.4255 11.2718V3.82568H14.2565V12.0768C14.2565 12.0879 14.2561 12.0988 14.2559 12.1097Z" fill="#183322"/>
<path id="Vector_7" d="M14.087 12.077C14.087 12.2878 14.0212 12.4834 13.9017 12.6275C13.7973 12.7534 13.664 12.8227 13.5264 12.8227H13.5492C13.7408 12.8227 13.8875 12.7149 13.9769 12.6244C14.1038 12.4959 14.201 12.3154 14.2552 12.1099C14.2556 12.099 14.2559 12.0881 14.2559 12.077V3.82568H14.0868V12.0768L14.087 12.077Z" fill="#183322"/>
<path id="Vector_8" d="M1.09375 12.8226H1.10628C1.03582 12.8226 0.966179 12.8096 0.899414 12.7852C0.957962 12.8084 1.02267 12.8226 1.09375 12.8226Z" fill="#183322"/>
<path id="Vector_9" d="M1.09356 13.1611H1.1061C0.997012 13.1611 0.891626 13.1418 0.791992 13.1062C0.887312 13.1418 0.988384 13.1611 1.09356 13.1611Z" fill="white"/>
<path id="Vector_10" d="M14.9068 3.48706H14.4259V3.6563H14.9068C15.1328 3.6563 15.3503 3.77002 15.5198 3.97668C15.7838 4.29891 15.8906 4.78627 15.7986 5.24833L14.4419 12.0571C14.4368 12.0826 14.431 12.1075 14.4249 12.1324C14.4008 12.7053 14.0083 13.1608 13.5273 13.1608H13.5501C14.0475 13.1608 14.482 12.7209 14.6077 12.0903L15.9644 5.28144C16.1452 4.37376 15.6227 3.48706 14.9068 3.48706Z" fill="white"/>
<path id="Vector_11" d="M2.44993 3.6563H14.087V3.48706H2.44993C1.95258 3.48706 1.51809 3.92692 1.39237 4.5576L0.337891 9.85047V10.7156L1.55836 4.59071C1.66806 4.04043 2.03475 3.6563 2.45013 3.6563H2.44993Z" fill="white"/>
<path id="Vector_12" d="M14.424 12.1327C14.2973 12.6423 13.9456 12.9919 13.5493 12.9919H1.09341C1.0215 12.9919 0.950425 12.9801 0.881606 12.9579C0.473004 12.8325 0.168966 12.3731 0.168966 11.8269V10.6992L0.0360519 11.3667C-0.118227 12.1409 0.239223 12.8997 0.792038 13.1062C0.891672 13.1418 0.997058 13.1611 1.10614 13.1611H13.5267C14.0076 13.1611 14.4002 12.7056 14.4242 12.1327H14.424Z" fill="white"/>
<path id="Vector_13" d="M14.4259 3.48706H14.2568V3.6563H14.4259V3.48706Z" fill="white"/>
<path id="Vector_14" d="M0.480584 12.6715C0.216605 12.3493 0.109576 11.862 0.201814 11.3999L0.338015 10.7159V9.85083L0.168945 10.6993V11.827C0.168945 12.3734 0.472983 12.8328 0.881585 12.958C0.733881 12.9101 0.596036 12.8124 0.480584 12.6715Z" fill="white"/>
<path id="Vector_15" d="M14.256 3.48706H14.0869V3.6563H14.256V3.48706Z" fill="white"/>
<path id="Vector_16" d="M14.9067 3.82569C15.1303 3.82569 15.2923 3.96635 15.3889 4.08418C15.6216 4.36816 15.7151 4.80164 15.6327 5.21538L14.426 11.2718V12.0766C14.426 12.0953 14.4256 12.1139 14.4248 12.1324C14.431 12.1077 14.4367 12.0826 14.4419 12.0571L15.7985 5.24828C15.8906 4.78622 15.7837 4.29886 15.5198 3.97663C15.3505 3.76997 15.1327 3.65625 14.9067 3.65625H14.4258V3.82549H14.9067V3.82569Z" fill="white"/>
<path id="Vector_17" d="M0.611319 12.5642C0.378566 12.2803 0.285095 11.8468 0.367473 11.433L1.72434 4.62401C1.77242 4.38321 1.87821 4.17017 2.02263 4.02397C2.11199 3.93349 2.25867 3.82573 2.45034 3.82573H14.0874V3.65649H2.45013C2.03475 3.65649 1.66806 4.04083 1.55836 4.5909L0.337891 10.7158V11.8268C0.337891 12.1044 0.425199 12.3627 0.583997 12.5542C0.675003 12.664 0.78306 12.7425 0.899128 12.7851C0.77361 12.7353 0.677263 12.6444 0.611319 12.564V12.5642Z" fill="white"/>
<path id="Vector_18" d="M14.4251 11.272L14.2752 12.0244C14.2694 12.0534 14.2628 12.0818 14.2554 12.1099C14.2415 12.5991 13.92 12.9919 13.5264 12.9919H13.5492C13.9454 12.9919 14.2969 12.6423 14.4239 12.1328C14.4247 12.1143 14.4251 12.0957 14.4251 12.077V11.2722V11.272Z" fill="white"/>
<path id="Vector_19" d="M1.09364 12.9919H1.10617C1.02892 12.9919 0.953737 12.98 0.881836 12.958C0.950861 12.9804 1.02173 12.9919 1.09364 12.9919Z" fill="white"/>
<path id="Vector_20" d="M14.4259 3.65649H14.2568V3.82573H14.4259V3.65649Z" fill="white"/>
<path id="Vector_21" d="M14.256 3.65649H14.0869V3.82573H14.256V3.65649Z" fill="white"/>
<path id="Vector_22" d="M14.2554 12.1098C14.2011 12.3153 14.104 12.4958 13.977 12.6243C13.8877 12.7148 13.741 12.8226 13.5493 12.8226H1.0932C1.02212 12.8226 0.957413 12.8082 0.898866 12.7851C0.782797 12.7424 0.674946 12.664 0.583734 12.5542C0.425142 12.3628 0.337628 12.1045 0.337628 11.8269V10.7158L0.201427 11.3998C0.109394 11.8618 0.216218 12.3492 0.480197 12.6714C0.595649 12.8123 0.733494 12.91 0.881198 12.9579C0.953099 12.9799 1.02829 12.9918 1.10553 12.9918H13.5261C13.9197 12.9918 14.2412 12.599 14.2552 12.1098H14.2554Z" fill="white"/>
</g>
</svg>
